<?xml version="1.0" encoding="UTF-8"?>
<!-- Generated by Pixelmator Pro 3.6.18 -->
<svg width="1080" height="1080" viewBox="0 0 1080 1080" xmlns="http://www.w3.org/2000/svg">
    <g id="2023Facebookicon">
        <g id="g19">
            <clipPath id="clipPath1">
                <path d="M -29.533298 -28.200454 L 1108.199806 -28.200454 L 1108.199806 1109.532649 L -29.533298 1109.532649 Z"/>
            </clipPath>
            <g id="g21" clip-path="url(#clipPath1)">
                <g id="g27">
                    <path id="path29" fill="#000000" stroke="none" d="M 945.666565 540.666077 C 945.666565 316.2547 763.744568 134.332825 539.333252 134.332825 C 314.921875 134.332825 133 316.2547 133 540.666077 C 133 731.228271 264.188751 891.123657 441.172882 935.03363 L 441.172882 664.835022 L 357.383698 664.835022 L 357.383698 540.666077 L 441.172882 540.666077 L 441.172882 487.161743 C 441.172882 348.858887 503.76123 284.755798 639.541565 284.755798 C 665.283569 284.755798 709.702271 289.80249 727.873535 294.850708 L 727.873535 407.41156 C 718.28241 406.402222 701.626038 405.896729 680.930664 405.896729 C 614.303406 405.896729 588.559753 431.134888 588.559753 496.752808 L 588.559753 540.666077 L 721.282776 540.666077 L 698.482605 664.835022 L 588.559753 664.835022 L 588.559753 944.023376 C 789.753174 919.723022 945.666565 748.412903 945.666565 540.666077"/>
                </g>
            </g>
        </g>
    </g>
</svg>
