<?xml version="1.0" encoding="UTF-8"?>
<!-- Generated by Pixelmator Pro 3.6.18 -->
<svg width="1080" height="1080" viewBox="0 0 1080 1080" xmlns="http://www.w3.org/2000/svg">
    <path id="path815" fill="#000000" stroke="none" d="M 818.217346 283.570251 C 766.237732 259.478577 710.65863 241.969666 652.552246 232 C 645.416138 244.780823 637.079041 261.971252 631.330872 275.64624 C 569.562317 266.444153 508.361725 266.444153 447.729095 275.64624 C 441.982086 261.971252 433.455658 244.780823 426.255646 232 C 368.086517 241.969666 312.443573 259.542908 260.463959 283.697876 C 155.62059 440.643005 127.19928 593.689819 141.409958 744.563477 C 210.947601 796.005127 278.337952 827.254395 344.590973 847.703003 C 360.949219 825.400635 375.538605 801.692749 388.106934 776.706909 C 364.170013 767.696777 341.243622 756.577759 319.580841 743.669434 C 325.32785 739.45166 330.949402 735.041992 336.380493 730.504761 C 468.507935 791.724121 612.067749 791.724121 742.61676 730.504761 C 748.111694 735.041992 753.732117 739.45166 759.416382 743.669434 C 737.689758 756.640991 714.700623 767.76001 690.763672 776.77124 C 703.332031 801.692749 717.858704 825.465027 734.279663 847.766235 C 800.596558 827.317627 868.049438 796.069458 937.587036 744.563477 C 954.261292 569.662476 909.102966 418.021118 818.217346 283.570251 Z M 406.107513 651.777588 C 366.444183 651.777588 333.917023 615.096924 333.917023 570.429077 C 333.917023 525.761108 365.749603 489.017273 406.107513 489.017273 C 446.466522 489.017273 478.992584 525.696777 478.298004 570.429077 C 478.360748 615.096924 446.466522 651.777588 406.107513 651.777588 Z M 672.889771 651.777588 C 633.226379 651.777588 600.699219 615.096924 600.699219 570.429077 C 600.699219 525.761108 632.530762 489.017273 672.889771 489.017273 C 713.247681 489.017273 745.77478 525.696777 745.080261 570.429077 C 745.080261 615.096924 713.247681 651.777588 672.889771 651.777588 Z"/>
</svg>
