<?xml version="1.0" encoding="UTF-8"?>
<!-- Generated by Pixelmator Pro 3.6.18 -->
<svg width="1080" height="1080" viewBox="0 0 1080 1080" xmlns="http://www.w3.org/2000/svg">
    <g id="Snapchatlogo">
        <g id="layer2">
            <g id="g823">
                <path id="path821" fill="#000000" stroke="none" d="M 950.033264 728.695862 C 944.30542 713.045044 933.333679 704.735596 920.909912 697.797729 C 918.570374 696.426208 916.392151 695.296753 914.617371 694.48999 C 910.906311 692.553833 907.114624 690.698364 903.322998 688.762207 C 864.518677 668.190308 834.185242 642.213196 813.210022 611.476379 C 806.110657 601.069336 801.189514 591.711243 797.72052 584.047119 C 795.94574 578.884033 796.026428 575.979736 797.317139 573.317505 C 798.285278 571.300659 800.866882 569.203125 802.31897 568.154358 C 809.014954 563.717285 815.872192 559.280151 820.551331 556.295227 C 828.860718 550.890137 835.476013 546.61438 839.671082 543.710083 C 855.644531 532.577026 866.777588 520.718018 873.715576 507.487427 C 883.5578 488.851685 884.767944 467.553772 877.18457 447.54657 C 866.69696 419.794678 840.397156 402.530396 808.611572 402.530396 C 801.996216 402.530396 795.300293 403.25647 788.685059 404.708557 C 786.910156 405.111938 785.216003 405.51532 783.521912 405.918701 C 783.844604 387.040955 783.360596 366.872437 781.666382 347.187927 C 775.696533 277.808228 751.413574 241.424194 726.08197 212.462158 C 715.51355 200.361084 697.119934 182.69342 669.529358 166.881287 C 631.047852 144.776611 587.483765 133.643555 539.966736 133.643555 C 492.610992 133.643555 449.046997 144.776611 410.56546 166.800659 C 382.813568 182.612732 364.419861 200.361084 353.93222 212.381531 C 328.600525 241.343506 304.317627 277.727539 298.347748 347.1073 C 296.653595 366.791809 296.250214 386.960327 296.492218 405.838074 C 294.798096 405.434692 293.023254 405.031311 291.329102 404.62793 C 284.713837 403.175781 277.937195 402.449707 271.402588 402.449707 C 239.616989 402.449707 213.31723 419.713989 202.82959 447.465881 C 195.246231 467.473083 196.456345 488.771057 206.298584 507.406738 C 213.236557 520.637268 224.450256 532.496399 240.343063 543.629395 C 244.61879 546.61438 251.153397 550.890137 259.46283 556.2146 C 263.980591 559.118896 270.515198 563.394592 276.969086 567.670288 C 277.937195 568.315674 281.406189 570.897339 282.616302 573.317505 C 283.987762 576.060425 283.987762 579.04541 281.970886 584.531189 C 278.582611 592.033936 273.661469 601.230713 266.723511 611.395691 C 246.151611 641.487183 216.705551 666.980164 179.192093 687.310059 C 159.265579 697.878296 138.613007 704.896973 129.900208 728.615234 C 123.28492 746.52478 127.641319 766.935425 144.340866 784.119019 L 144.340866 784.119019 C 149.826706 790.008179 156.764664 795.251953 165.477478 800.092407 C 185.968704 811.386841 203.394318 816.953369 217.108917 820.744995 C 219.529144 821.471069 225.095642 823.245972 227.515884 825.424133 C 233.64711 830.748596 232.759689 838.81604 240.907776 850.594421 C 245.828918 857.935791 251.476089 862.937622 256.155182 866.164551 C 273.177429 877.942993 292.377869 878.669067 312.707764 879.47583 C 331.020752 880.201843 351.834686 881.008606 375.552887 888.833984 C 385.395111 892.060913 395.640747 898.353516 407.419159 905.614197 C 435.816437 923.120483 474.782074 947 539.886047 947 C 605.07074 947 644.197754 922.959106 672.837036 905.45282 C 684.615417 898.272827 694.780396 891.980286 704.299927 888.833984 C 728.018066 881.008606 748.832031 880.201843 767.14502 879.47583 C 787.474915 878.669067 806.594666 877.942993 823.697632 866.164551 C 829.022095 862.453552 835.798706 856.402954 841.12323 847.206177 C 846.931702 837.283203 846.851074 830.264587 852.336914 825.504822 C 854.595825 823.568604 859.516846 821.874451 862.179199 821.067749 C 875.974426 817.276001 893.64209 811.709534 914.536621 800.173096 C 923.814209 795.090637 930.994202 789.52417 936.722046 783.150879 C 936.802734 783.07019 936.883423 782.989502 936.96405 782.908875 C 952.53418 765.967285 956.487183 746.202148 950.033264 728.695862 Z M 892.18988 759.755371 C 856.854675 779.278564 833.37854 777.180969 815.146118 788.878723 C 799.656738 798.882324 808.772949 820.422363 797.559143 828.166992 C 783.683228 837.767273 742.781494 827.521667 689.939941 844.947205 C 646.375916 859.387939 618.543335 900.773743 540.047363 900.773743 C 461.390137 900.773743 434.364319 859.549316 390.154907 844.947205 C 337.313324 827.521667 296.330902 837.767273 282.535614 828.166992 C 271.32193 820.422363 280.43811 798.882324 264.948669 788.878723 C 246.716309 777.100342 223.240158 779.197815 187.904892 759.755371 C 165.396805 747.331543 178.143326 739.66748 185.646011 736.03717 C 313.595154 674.160156 333.925049 578.480652 334.893097 571.300659 C 336.022583 562.749207 337.232697 555.972595 327.793823 547.179077 C 318.677643 538.708252 278.098541 513.618652 266.884827 505.793274 C 248.249115 492.804749 240.101044 479.816223 246.151611 463.842773 C 250.346649 452.790344 260.672943 448.676025 271.563965 448.676025 C 274.95224 448.676025 278.421234 449.079407 281.728882 449.80542 C 302.139435 454.242493 321.98526 464.488098 333.44101 467.231018 C 335.054474 467.634399 336.425934 467.795776 337.636047 467.795776 C 343.767273 467.795776 345.864807 464.730103 345.461426 457.711548 C 344.170654 435.364746 340.943665 391.800781 344.493378 351.060303 C 349.333801 295.07251 367.404785 267.320618 388.864136 242.714966 C 399.190399 230.936523 447.594879 179.789185 540.128113 179.789185 C 632.90332 179.789185 681.065796 230.936523 691.392029 242.714966 C 712.851379 267.239868 730.922424 294.99176 735.762817 351.060303 C 739.3125 391.800781 736.246826 435.364746 734.794739 457.711548 C 734.31073 465.052856 736.56958 467.795776 742.620117 467.795776 C 743.8302 467.795776 745.282349 467.634399 746.815186 467.231018 C 758.270874 464.488098 778.11676 454.242493 798.527283 449.80542 C 801.8349 449.079407 805.303894 448.676025 808.6922 448.676025 C 819.583191 448.676025 829.909485 452.871094 834.104553 463.842773 C 840.15509 479.816223 831.926392 492.804749 813.371338 505.793274 C 802.157593 513.618652 761.578552 538.708252 752.462341 547.179077 C 743.023499 555.891846 744.233582 562.668579 745.363037 571.300659 C 746.250488 578.480652 766.661011 674.160156 894.610168 736.03717 C 901.870789 739.66748 914.697998 747.331543 892.18988 759.755371 Z"/>
            </g>
        </g>
    </g>
</svg>
