<?xml version="1.0" encoding="UTF-8"?>
<!-- Generated by Pixelmator Pro 3.6.18 -->
<svg width="1080" height="1080" viewBox="0 0 1080 1080" xmlns="http://www.w3.org/2000/svg">
    <path id="MessengerIconSecondaryBlack" fill="#000000" stroke="none" d="M 539.498718 134 C 310.509857 134 133 301.73761 133 528.303772 C 133 646.82251 181.568466 749.211365 260.65686 819.958435 C 267.307159 825.893311 271.307129 834.23468 271.583557 843.128845 L 273.794891 915.453125 C 274.49408 938.509705 298.331146 953.5177 319.420319 944.200684 L 400.102173 908.575134 C 406.947601 905.567017 414.606049 904.997986 421.809204 906.997925 C 458.898132 917.192932 498.344788 922.623779 539.482483 922.623779 C 768.471313 922.623779 945.98114 754.886108 945.98114 528.320007 C 945.98114 301.753845 768.487549 134 539.498718 134 Z M 791.397888 423.085571 L 649.871277 641.814453 C 642.684326 652.920044 627.871521 656.090698 616.765991 648.903809 L 485.662018 564.075623 C 480.588928 560.791138 474.019897 560.888672 469.044342 564.319519 L 321.273956 666.236877 C 299.713257 681.098511 273.355865 655.521606 287.583344 633.538086 L 429.12616 414.809326 C 436.31308 403.703735 451.125885 400.53302 462.215179 407.719971 L 593.351685 492.564392 C 598.424744 495.848877 604.993774 495.751282 609.969299 492.320496 L 757.707214 390.419373 C 779.267883 375.541504 805.625305 401.134644 791.397888 423.118103 Z"/>
</svg>
