<?xml version="1.0" encoding="UTF-8"?>
<!-- Generated by Pixelmator Pro 3.6.18 -->
<svg width="1080" height="1080" viewBox="0 0 1080 1080" xmlns="http://www.w3.org/2000/svg">
    <path id="BlueskyLogo" fill="#000000" stroke="none" d="M 306.043732 225.60968 C 400.743042 296.703918 502.602905 440.853516 540.000732 518.212524 C 577.401367 440.859253 679.255554 296.702576 773.957642 225.60968 C 842.28772 174.310852 953 134.618835 953 260.921143 C 953 286.145386 938.537842 472.818237 930.055725 503.123901 C 900.571838 608.487061 793.133667 635.360474 697.565613 619.095459 C 864.61676 647.526855 907.112915 741.702148 815.337341 835.87738 C 641.037415 1014.734497 564.817688 791.001404 545.278564 733.672852 C 541.698242 723.163208 540.022888 718.246643 539.998291 722.427307 C 539.973511 718.24646 538.298279 723.163147 534.718018 733.672852 C 515.187439 791.001404 438.969116 1014.740234 264.65921 835.87738 C 172.882248 741.702148 215.377029 647.52124 382.430969 619.095459 C 286.860077 635.360474 179.420441 608.486938 149.940842 503.123901 C 141.458405 472.81543 126.996597 286.142578 126.996597 260.921143 C 126.996597 134.618835 237.711731 174.310852 306.03891 225.60968 Z"/>
</svg>
