<?xml version="1.0" encoding="UTF-8"?>
<!-- Generated by Pixelmator Pro 3.6.18 -->
<svg width="1080" height="1080" viewBox="0 0 1080 1080" xmlns="http://www.w3.org/2000/svg">
    <path id="DigitalGlyphWhite" fill="#ffffff" fill-rule="evenodd" stroke="none" d="M 821.781433 256.358582 C 746.880127 181.360962 647.261841 140.038025 541.120056 140 C 322.406097 140 144.405518 317.981628 144.329422 536.753235 C 144.291367 606.689453 162.574692 674.952209 197.295853 735.110962 L 141 940.735962 L 351.343506 885.562256 C 409.294037 917.183411 474.55072 933.82959 540.949646 933.849487 L 541.120056 933.849487 C 759.796448 933.849487 937.817932 755.8479 937.893188 537.076416 C 937.930847 431.049744 896.702698 331.375488 821.781433 256.377625 L 821.781433 256.358582 Z M 541.120056 866.841919 L 540.987244 866.841919 C 481.817963 866.824219 423.773132 850.917297 373.128357 820.876587 L 361.084656 813.724487 L 236.259735 846.465698 L 269.572968 724.760254 L 261.734406 712.280029 C 228.725555 659.771362 211.279343 599.079102 211.317413 536.773132 C 211.393555 354.947815 359.334137 207.006958 541.255127 207.006958 C 629.340576 207.045044 712.140015 241.385864 774.408325 303.731628 C 836.678894 366.058655 870.943115 448.93335 870.905518 537.038757 C 870.828003 718.883179 722.889221 866.824219 541.120056 866.824219 L 541.120056 866.841919 Z M 722.012634 619.855835 C 712.100159 614.890808 663.35907 590.917603 654.263428 587.608276 C 645.169983 584.296753 638.569092 582.643188 631.965942 592.573364 C 625.36499 602.505737 606.35907 624.840942 600.574951 631.441833 C 594.790833 638.062683 589.006714 638.881714 579.094238 633.914429 C 569.184021 628.949341 537.239685 618.485718 499.360687 584.715088 C 469.891113 558.422058 449.988708 525.96637 444.206818 516.033997 C 438.422668 506.103821 443.598053 500.738037 448.543243 495.810608 C 452.994781 491.35907 458.455688 484.22467 463.420776 478.440552 C 468.388092 472.656433 470.023926 468.510376 473.333252 461.907227 C 476.644775 455.286377 474.989014 449.504456 472.516449 444.53717 C 470.041626 439.572083 450.218903 390.77124 441.942291 370.928589 C 433.893646 351.599243 425.714447 354.224854 419.644775 353.901367 C 413.860657 353.615845 407.259735 353.55896 400.638885 353.55896 C 394.018036 353.55896 383.28653 356.032227 374.193085 365.963562 C 365.09964 375.893677 339.490814 399.884583 339.490814 448.665527 C 339.490814 497.446472 375.012115 544.61145 379.977203 551.2323 C 384.942291 557.853149 449.893524 657.982788 549.339111 700.942017 C 572.989197 711.157715 591.461609 717.265015 605.86322 721.831665 C 629.608459 729.384399 651.219727 728.319702 668.30426 725.769653 C 687.349976 722.91626 726.959961 701.778687 735.216736 678.624573 C 743.47345 655.470337 743.47345 635.607788 741.000854 631.479492 C 738.528259 627.351074 731.90741 624.858643 721.994934 619.893555 L 722.012634 619.855835 Z"/>
</svg>
