<?xml version="1.0" encoding="UTF-8"?>
<!-- Generated by Pixelmator Pro 3.6.18 -->
<svg width="1080" height="1080" viewBox="0 0 1080 1080" xmlns="http://www.w3.org/2000/svg">
    <path id="path1" fill="#ffffff" fill-rule="evenodd" stroke="none" d="M 322.440186 896.967712 C 310.690735 896.967712 301.548645 894.067566 295.013733 888.267212 C 288.47876 882.466797 285.010437 875.237244 284.608643 866.578247 C 284.206848 857.91925 287.121155 849.458618 293.351685 841.196167 C 298.251099 834.937378 303.984131 827.046692 310.550964 817.523926 C 317.117737 808.00116 323.775604 798.017456 330.524719 787.57251 C 337.273865 777.127625 342.972351 767.425354 347.620483 758.465454 C 314.01825 742.482117 284.638855 721.863342 259.481445 696.608582 C 234.324036 671.353821 214.747818 642.875366 200.752197 611.172363 C 186.756592 579.469421 179.758896 546.059753 179.758896 510.942383 C 179.758896 470.065308 189.270874 431.720886 208.295135 395.907959 C 227.319412 360.094971 253.719879 328.646423 287.497314 301.561462 C 321.27478 274.476501 360.443146 253.251526 405.003601 237.885864 C 449.564087 222.520264 497.399261 214.837585 548.51062 214.837585 C 599.604248 214.837585 647.481018 222.520264 692.142395 237.885864 C 736.803711 253.251526 775.977417 274.476501 809.664612 301.561462 C 843.351746 328.646423 869.701782 360.094971 888.715454 395.907959 C 907.729065 431.720886 917.235779 470.065308 917.235779 510.942383 C 917.235779 545.050842 910.813293 577.204712 897.968201 607.404907 C 885.123108 637.605103 866.921326 665.076416 843.362244 689.819702 C 819.803162 714.562866 791.685791 735.777222 759.009277 753.463379 C 726.332764 771.149536 690.11322 784.582031 650.349548 793.761414 C 610.585876 802.940796 568.12085 807.05072 522.953247 806.09137 C 500.742981 821.869385 476.951477 836.711792 451.578125 850.618896 C 426.204773 864.526001 402.013275 875.727417 379.002899 884.223572 C 355.992554 892.719727 337.138489 896.967712 322.440186 896.967712 Z M 358.888428 837.346375 C 368.520905 833.335449 380.688782 827.157288 395.392395 818.811646 C 410.096039 810.465942 425.35611 801.151306 441.173065 790.867432 C 456.990051 780.583557 471.403168 770.68396 484.412872 761.168274 C 490.682312 756.258179 496.614471 752.68103 502.209534 750.436646 C 507.804596 748.192261 514.032349 747.070068 520.892944 747.070068 C 527.049133 747.275391 532.425537 747.480713 537.022278 747.686035 C 541.619019 747.891357 545.448486 747.994019 548.51062 747.994019 C 591.70636 747.994019 631.988037 741.823792 669.356934 729.483154 C 706.725769 717.142517 739.53894 700.087646 767.797424 678.318115 C 796.055908 656.548462 818.127869 631.351685 834.013855 602.726746 C 849.899841 574.101807 857.842773 543.507324 857.842773 510.942383 C 857.842773 478.395142 849.899841 447.809448 834.013855 419.18457 C 818.127869 390.559692 796.055908 365.363708 767.797424 343.595886 C 739.53894 321.828064 706.725769 304.819275 669.356934 292.568848 C 631.988037 280.318481 591.70636 274.19342 548.51062 274.19342 C 505.523682 274.19342 465.289764 280.318481 427.807648 292.568848 C 390.325531 304.819275 357.454834 321.828064 329.19458 343.595886 C 300.934265 365.363708 278.862366 390.559692 262.978149 419.18457 C 247.093903 447.809448 239.151886 478.395142 239.151886 510.942383 C 239.151886 539.181396 245.316803 566.027039 257.646851 591.480042 C 269.976868 616.933044 287.837036 640.254639 311.227966 661.445374 C 334.618896 682.636108 362.941589 700.960999 396.196869 716.42041 C 406.434723 721.220703 412.490784 727.282104 414.365234 734.604736 C 416.239716 741.927307 414.835205 749.831238 410.151703 758.316772 C 404.47345 769.089172 396.306671 781.701294 385.651093 796.153564 C 374.995544 810.605896 365.343689 823.141907 356.695374 833.762085 C 355.54837 835.202881 355.251007 836.306519 355.803284 837.072876 C 356.35553 837.839355 357.383881 837.930481 358.888428 837.346375 Z"/>
</svg>
