<?xml version="1.0" encoding="UTF-8"?>
<!-- Generated by Pixelmator Pro 3.6.18 -->
<svg width="1080" height="1080" viewBox="0 0 1080 1080" xmlns="http://www.w3.org/2000/svg">
    <g id="logoivory">
        <path id="path1" fill="#000000" stroke="none" d="M 789.412415 214 C 879.759338 214 953.000061 287.044006 953.000061 377.148376 L 953.000061 507.667114 C 953.000061 597.771484 879.759338 670.815491 789.412415 670.815491 L 605.142517 670.815491 C 587.07312 670.815491 572.425049 656.206665 572.425049 638.185791 C 572.425049 620.164917 587.07312 605.556152 605.142517 605.556152 C 659.066406 605.556152 702.827759 561.755798 702.827759 507.667114 L 702.827759 377.148376 C 702.827759 323.059692 659.066406 279.259338 605.142517 279.259338 L 474.739868 279.259338 C 420.81601 279.259338 377.054626 323.059692 377.054626 377.148376 L 377.054626 507.667114 C 377.054626 561.167847 419.869843 604.602783 472.985046 605.540649 L 474.739868 605.556274 C 492.809265 605.556274 507.457367 620.1651 507.457367 638.185974 L 507.457367 768.937744 C 507.457367 786.382568 521.282776 800.606995 538.602234 801.307312 L 539.941223 801.333496 C 558.01062 801.333496 572.658752 815.942261 572.658752 833.963135 C 572.658752 851.983948 558.01062 866.592773 539.941223 866.592773 C 485.862061 866.592773 442.022308 822.870728 442.022308 768.936768 L 442.021271 670.810974 L 290.469971 670.815491 C 200.123032 670.815491 126.882317 597.771484 126.882317 507.667114 L 126.882317 377.148376 C 126.882317 287.044006 200.123032 214 290.469971 214 Z M 789.412415 279.259338 L 735.646973 279.255249 C 756.128296 306.526611 768.262817 340.424011 768.262817 377.148376 L 768.262817 507.667114 C 768.262817 544.391479 756.128296 578.28894 735.646973 605.560303 L 789.412415 605.556152 C 843.620544 605.556152 887.565063 561.729736 887.565063 507.667114 L 887.565063 377.148376 C 887.565063 323.085815 843.620544 279.259338 789.412415 279.259338 Z M 344.235382 279.255249 L 290.469971 279.259338 C 236.261871 279.259338 192.317383 323.085815 192.317383 377.148376 L 192.317383 507.667114 C 192.317383 561.729736 236.261871 605.556152 290.469971 605.556152 L 344.235382 605.560303 C 323.75412 578.28894 311.619568 544.391479 311.619568 507.667114 L 311.619568 377.148376 C 311.619568 340.424011 323.75412 306.526611 344.235382 279.255249 Z M 474.739868 377.148376 C 492.809265 377.148376 507.457367 391.757202 507.457367 409.778076 L 507.457367 475.037415 C 507.457367 493.058289 492.809265 507.667114 474.739868 507.667114 C 456.670471 507.667114 442.022308 493.058289 442.022308 475.037415 L 442.022308 409.778076 C 442.022308 391.757202 456.670471 377.148376 474.739868 377.148376 Z M 605.142517 377.148376 C 623.211914 377.148376 637.860107 391.757202 637.860107 409.778076 L 637.860107 475.037415 C 637.860107 493.058289 623.211914 507.667114 605.142517 507.667114 C 587.07312 507.667114 572.425049 493.058289 572.425049 475.037415 L 572.425049 409.778076 C 572.425049 391.757202 587.07312 377.148376 605.142517 377.148376 Z"/>
    </g>
</svg>
