<?xml version="1.0" encoding="UTF-8"?>
<!-- Generated by Pixelmator Pro 3.6.18 -->
<svg width="1080" height="1080" viewBox="0 0 1080 1080" xmlns="http://www.w3.org/2000/svg">
    <path id="Path-copy" fill="#ffffff" fill-rule="evenodd" stroke="none" d="M 601.231201 729.619751 C 598.83075 792.35022 546.003601 842.69458 481.243073 842.69458 C 466.438324 842.69458 452.264465 840.056458 439.169739 835.237427 C 452.264465 840.056458 466.442932 842.69458 481.247589 842.69458 C 546.00824 842.69458 598.835327 792.35022 601.240295 729.624268 L 601.468872 169.471069 L 706.172119 169.471069 C 716.262939 222.723328 748.606628 268.417969 793.414185 296.966797 C 793.427917 296.985046 793.446228 297.003296 793.4599 297.021545 C 824.651367 316.887817 861.841553 328.478333 901.766113 328.478333 L 901.766113 359.592041 C 901.766113 359.592041 901.766113 359.592041 901.77063 359.596619 L 901.77063 468.227356 C 827.609497 468.227356 758.889587 445.041809 702.797852 405.69342 L 702.797852 689.73645 C 702.797852 831.593262 584.711731 947 439.55838 947 C 383.471252 947 331.458008 929.712585 288.703461 900.372864 C 288.680511 900.349976 288.657654 900.322571 288.63028 900.299683 C 220.78804 853.71814 176.32811 776.717896 176.32811 689.709045 C 176.32811 547.856689 294.414124 432.445374 439.567505 432.445374 C 451.610687 432.445374 463.416138 433.414673 475.038635 434.955566 L 475.038635 468.067383 C 342.618713 471.089478 234.051941 570.082153 219.640503 696.507813 C 234.065674 570.095825 342.62323 471.117004 475.033936 468.094849 L 475.033936 577.671936 C 463.804657 574.238281 451.935272 572.240234 439.55838 572.240234 C 373.270721 572.240234 319.341705 624.952942 319.341705 689.73645 C 319.341705 734.850281 345.531219 774.047668 383.795929 793.72644 C 383.795929 793.730957 383.795929 793.730957 383.795929 793.730957 C 400.479767 802.312988 419.43158 807.228088 439.553772 807.228088 C 504.314301 807.228088 557.141479 756.883667 559.546387 694.157837 L 559.775085 134 L 702.793335 134 C 702.793335 146.116394 703.986633 157.958313 706.167542 169.471069 L 601.464355 169.471069 L 601.231201 729.619751 Z"/>
</svg>
