<?xml version="1.0" encoding="UTF-8"?>
<!-- Generated by Pixelmator Pro 3.6.18 -->
<svg width="1080" height="1080" viewBox="0 0 1080 1080" xmlns="http://www.w3.org/2000/svg">
    <path id="InstagramGlyphBlack" fill="#000000" stroke="none" d="M 371.146393 136.837036 C 327.894318 138.877686 298.357697 145.780151 272.53653 155.926453 C 245.812943 166.341125 223.162521 180.316772 200.625916 202.934631 C 178.08931 225.552551 164.211258 248.219238 153.869781 274.983459 C 143.861649 300.861572 137.081146 330.422546 135.170578 373.698975 C 133.26001 416.975464 132.83725 430.886047 133.04863 541.276367 C 133.26001 651.666748 133.747818 665.50415 135.845383 708.869995 C 137.910416 752.113892 144.788483 781.642395 154.93483 807.47168 C 165.365723 834.195313 179.325089 856.837585 201.951126 879.382324 C 224.577148 901.927063 247.227585 915.772644 274.056854 926.130371 C 299.910553 936.122192 329.479675 942.935242 372.748016 944.829529 C 416.016327 946.723816 429.943146 947.162903 540.300964 946.951477 C 650.658752 946.740112 664.553101 946.252319 707.910889 944.195374 C 751.268616 942.138489 780.642578 935.21167 806.480042 925.114075 C 833.203613 914.658752 855.862183 900.723816 878.390686 878.089661 C 900.919128 855.455505 914.789063 832.772522 925.122375 805.992065 C 935.138672 780.138367 941.943542 750.569214 943.821594 707.333435 C 945.715942 663.943176 946.163086 650.089478 945.95166 539.715393 C 945.740295 429.34137 945.244385 415.503967 943.1875 372.154297 C 941.130554 328.804688 934.244385 299.365662 924.10614 273.520081 C 913.658997 246.796509 899.715881 224.17041 877.097961 201.609436 C 854.480042 179.048462 831.780884 165.186646 805.008484 154.877747 C 779.13855 144.869568 749.585693 138.048401 706.317383 136.178528 C 663.049072 134.308594 649.122192 133.828918 538.723755 134.040283 C 428.325287 134.251709 414.50412 134.723267 371.146393 136.837036 M 375.894348 871.699402 C 336.260162 869.97583 314.739807 863.390442 300.398346 857.878235 C 281.406464 850.561157 267.877991 841.715637 253.585312 827.561157 C 239.292618 813.406677 230.512115 799.829407 223.097473 780.878174 C 217.528366 766.536743 210.821045 745.040771 208.967392 705.406616 C 206.951126 662.569214 206.528366 649.707397 206.292587 541.178833 C 206.056808 432.650269 206.471451 419.804749 208.349503 376.95105 C 210.040558 337.349426 216.66658 315.804688 222.170654 301.471313 C 229.487732 282.455017 238.300751 268.950989 252.487747 254.666382 C 266.674744 240.381836 280.211334 231.585083 299.178833 224.17041 C 313.504059 218.576904 335 211.926514 374.61792 210.040344 C 417.487885 208.007813 430.333405 207.601318 538.845703 207.36554 C 647.357971 207.129822 660.236023 207.536316 703.122253 209.422485 C 742.723938 211.146057 764.276733 217.707031 778.593872 223.243652 C 797.593872 230.56073 811.114197 239.349304 825.398743 253.56073 C 839.683289 267.772095 848.488159 281.259949 855.902832 300.268066 C 861.504456 314.552612 868.154846 336.040466 870.02478 375.6828 C 872.06543 418.552734 872.52887 431.406372 872.723999 539.910522 C 872.919067 648.414673 872.536987 661.300903 870.658936 704.138306 C 868.927246 743.772461 862.358093 765.300964 856.83783 779.658691 C 849.520752 798.642456 840.699524 812.179016 826.504456 826.455444 C 812.309326 840.731873 798.78894 849.528625 779.813354 856.943298 C 765.504395 862.528625 743.98407 869.195313 704.398682 871.081543 C 661.528748 873.097778 648.683167 873.520508 540.130249 873.756287 C 431.577301 873.992065 418.77243 873.55304 375.902466 871.699402 M 707.284851 323.235596 C 707.31781 342.966858 719.234192 360.735229 737.476746 368.254089 C 755.71936 375.773071 776.694946 371.561646 790.621521 357.583923 C 804.548096 343.60614 808.682556 322.615234 801.096802 304.400391 C 793.510986 286.185486 775.699097 274.33429 755.967773 274.373718 C 729.033386 274.427551 707.239868 296.301147 707.284851 323.235596 M 330.780487 540.902405 C 331.008118 656.187012 424.634216 749.43103 539.89447 749.211487 C 655.154724 748.992004 748.463745 655.374023 748.244202 540.089417 C 748.024719 424.804749 654.374207 331.536377 539.097717 331.764038 C 423.821198 331.991638 330.560974 425.633972 330.780487 540.902405 M 404.000031 540.756042 C 403.85202 465.919434 464.399078 405.132202 539.235718 404.984131 C 614.072449 404.835999 674.85968 465.382996 675.007874 540.219666 C 675.156128 615.056274 614.609192 675.843628 539.772522 675.991943 C 503.833252 676.067505 469.336426 661.86084 443.873169 636.498291 C 418.409973 611.13562 404.066833 576.695313 404.000031 540.756042"/>
</svg>
