<?xml version="1.0" encoding="UTF-8"?>
<!-- Generated by Pixelmator Pro 3.6.18 -->
<svg width="1080" height="1080" viewBox="0 0 1080 1080" xmlns="http://www.w3.org/2000/svg">
    <path id="Path" fill="#000000" stroke="none" d="M 539.744995 947 C 764.309814 947 946.578857 764.730957 946.578857 540.670898 C 946.578857 316.61084 764.309814 134.341797 539.744995 134.341797 C 315.684967 134.341797 133.415894 316.61084 133.415894 540.670898 C 133.415894 764.730957 315.684967 947 539.744995 947 Z M 347.405823 602.602112 C 313.670929 602.602112 285.474609 574.909302 285.474609 540.670898 C 285.474609 506.432495 313.670929 478.739685 347.405823 478.739685 C 381.141968 478.739685 409.338287 506.432495 409.338287 540.670898 C 409.338287 574.909302 381.644196 602.602112 347.405823 602.602112 Z M 539.744995 602.602112 C 505.506622 602.602112 477.815063 574.909302 477.815063 540.670898 C 477.815063 506.432495 505.506622 478.739685 539.744995 478.739685 C 573.983398 478.739685 602.179688 506.432495 602.179688 540.670898 C 602.179688 574.909302 573.983398 602.602112 539.744995 602.602112 Z M 732.587708 602.602112 C 698.349304 602.602112 670.656494 574.909302 670.656494 540.670898 C 670.656494 506.432495 698.349304 478.739685 732.587708 478.739685 C 766.322571 478.739685 794.520142 506.432495 794.520142 540.670898 C 794.520142 574.909302 766.322571 602.602112 732.587708 602.602112 Z"/>
</svg>
