<?xml version="1.0" encoding="UTF-8"?>
<!-- Generated by Pixelmator Pro 3.6.18 -->
<svg width="1080" height="1080" viewBox="0 0 1080 1080" xmlns="http://www.w3.org/2000/svg">
    <path id="path1" fill="#000000" fill-rule="evenodd" stroke="none" d="M 540.394714 947 C 484.075073 947 431.45105 936.475037 382.520477 915.425171 C 333.589203 894.375244 290.444611 865.170288 253.084534 827.810181 C 215.723724 790.450073 186.519455 747.235107 165.469208 698.165161 C 144.419296 649.095154 133.894348 596.540161 133.894348 540.5 C 133.894348 484.4599 144.419296 431.835144 165.469208 382.625793 C 186.519455 333.416382 215.723724 290.201416 253.084534 252.980713 C 290.444611 215.76001 333.589203 186.624756 382.520477 165.574829 C 431.45105 144.524963 484.075073 134 540.394714 134 C 596.434814 134 648.989136 144.524963 698.059814 165.574829 C 747.129822 186.624756 790.274414 215.76001 827.495789 252.980713 C 864.716492 290.201416 893.851746 333.416382 914.901672 382.625793 C 935.951538 431.835144 946.476501 484.4599 946.476501 540.5 C 946.476501 596.540161 935.951538 649.095154 914.901672 698.165161 C 893.851746 747.235107 864.716492 790.450073 827.495789 827.810181 C 790.274414 865.170288 747.129822 894.375244 698.059814 915.425171 C 648.989136 936.475037 596.434814 947 540.394714 947 Z M 540.394714 872.558655 C 586.119019 872.558655 629.054504 863.915649 669.203369 846.629639 C 709.351501 829.343628 744.689514 805.505615 775.219543 775.115723 C 805.748901 744.72583 829.517151 709.526489 846.524353 669.517761 C 863.531555 629.509033 872.035156 586.503052 872.035156 540.5 C 872.035156 494.496887 863.531555 451.491028 846.524353 411.482239 C 829.517151 371.473511 805.748901 336.27417 775.219543 305.884277 C 744.689514 275.494324 709.351501 251.656372 669.203369 234.370361 C 629.054504 217.084351 586.119019 208.441345 540.394714 208.441345 C 494.3909 208.441345 451.385712 217.084351 411.376984 234.370361 C 371.367493 251.656372 336.099182 275.494324 305.569885 305.884277 C 275.040558 336.27417 251.202591 371.473511 234.055984 411.482239 C 216.909378 451.491028 208.336075 494.496887 208.336075 540.5 C 208.336075 586.503052 216.909378 629.509033 234.055984 669.517761 C 251.202591 709.526489 275.040558 744.72583 305.569885 775.115723 C 336.099182 805.505615 371.367493 829.343628 411.376984 846.629639 C 451.385712 863.915649 494.3909 872.558655 540.394714 872.558655 Z M 355.127747 598.631165 C 338.95697 598.631165 325.156036 592.915649 313.724976 581.484558 C 302.293884 570.053467 296.578369 556.252563 296.578369 540.081787 C 296.578369 523.911011 302.293884 510.110107 313.724976 498.679016 C 325.156036 487.247925 338.95697 481.53241 355.127747 481.53241 C 371.019714 481.53241 384.681244 487.247925 396.112305 498.679016 C 407.543365 510.110107 413.258911 523.911011 413.258911 540.081787 C 413.258911 556.252563 407.613068 570.053467 396.321411 581.484558 C 385.029755 592.915649 371.298523 598.631165 355.127747 598.631165 Z M 539.976501 598.631165 C 524.084534 598.631165 510.353302 592.915649 498.782837 581.484558 C 487.212372 570.053467 481.427124 556.252563 481.427124 540.081787 C 481.427124 523.911011 487.212372 510.110107 498.782837 498.679016 C 510.353302 487.247925 524.084534 481.53241 539.976501 481.53241 C 556.147278 481.53241 569.948242 487.247925 581.379272 498.679016 C 592.810364 510.110107 598.525879 523.911011 598.525879 540.081787 C 598.525879 556.252563 592.810364 570.053467 581.379272 581.484558 C 569.948242 592.915649 556.147278 598.631165 539.976501 598.631165 Z M 725.243469 598.631165 C 709.072693 598.631165 695.341492 592.915649 684.049805 581.484558 C 672.758118 570.053467 667.112305 556.252563 667.112305 540.081787 C 667.112305 523.911011 672.758118 510.110107 684.049805 498.679016 C 695.341492 487.247925 709.072693 481.53241 725.243469 481.53241 C 741.135437 481.53241 754.866699 487.247925 766.437134 498.679016 C 778.007629 510.110107 783.792847 523.911011 783.792847 540.081787 C 783.792847 556.252563 778.007629 570.053467 766.437134 581.484558 C 754.866699 592.915649 741.135437 598.631165 725.243469 598.631165 Z"/>
</svg>
